<svg xmlns="http://www.w3.org/2000/svg" width="102" height="105" viewBox="0 0 102 105">
  <path d="M68.7153077,0.992378049 L66.4464615,0.992378049 L35.5535385,0.992378049 L33.2846923,0.992378049 L0.121615385,0.992378049 L0.121615385,104.014024 L33.2833846,104.014024 L35.5522308,104.014024 L66.4451538,104.014024 L68.714,104.014024 L101.875769,104.014024 L101.875769,0.992378049 L68.7153077,0.992378049 Z M33.2846923,100.605366 L3.60138462,100.605366 L3.60138462,4.40103659 L24.0746154,4.40103659 L24.0746154,61.9013415 L33.2833846,61.9013415 L33.2833846,100.605366 L33.2846923,100.605366 Z M66.4464615,100.605366 L36.7605385,100.605366 L36.7605385,61.9013415 L44.761,61.9013415 L44.761,4.40103659 L57.2376923,4.40103659 L57.2376923,61.9013415 L66.4464615,61.9013415 L66.4464615,100.605366 Z M98.3973077,100.605366 L69.9693846,100.605366 L69.9693846,61.9013415 L77.9227692,61.9013415 L77.9227692,4.40103659 L98.396,4.40103659 L98.396,100.605366 L98.3973077,100.605366 Z"></path>
</svg>
